# xmcd CD database file
#
# Track frame offsets:
#	150
#	15725
#	30325
#	45875
#	62300
#	83950
#	101550
#	125050
#	146200
#	168825
#	181775
#	198550
#	210825
#	230850
#	246450
#	268450
#
# Disc length: 3801 seconds
#
# Revision: 0
# Processed by: cddbd v1.5.2PL0 Copyright (c) Steve Scherf et al.
# Submitted via: Feurio! 1.68 - http://www.feurio.com
#
DISCID=dd0ed710
DTITLE=Various Artist - Pop and Wave - Die deutschen Wave Klassiker  [CD1 von 2)
DYEAR=1900
DGENRE=
TTITLE0=Ideal - Blaue Augen
TTITLE1=United Balls - Pogo In Togo
TTITLE2=Profil - Berühren
TTITLE3=Rheingold - Dreiklangdimensionen
TTITLE4=Grauzone - Eisbär
TTITLE5=Fee - Schweine Im Weltall
TTITLE6=Nina Hagen - Tv-glotzer (White Punks On Dope)
TTITLE7=Spliff - Das Blech
TTITLE8=Extrabreit - Polizisten
TTITLE9=Fehlfarben - Ein Jahr (Es Geht Voran)
TTITLE10=Hubert Kah - Rosemarie
TTITLE11=Andreas Dorau - Fred Vom Jupiter
TTITLE12=Joachim Witt - Der Goldene Reiter
TTITLE13=Kristi Kara - Kalt Wie Eis
TTITLE14=Cosa Rosa - Millionenmal
TTITLE15=Felix De Luxe - Taxi nach Paris
EXTD=
EXTT0=
EXTT1=
EXTT2=
EXTT3=
EXTT4=
EXTT5=
EXTT6=
EXTT7=
EXTT8=
EXTT9=
EXTT10=
EXTT11=
EXTT12=
EXTT13=
EXTT14=
EXTT15=
PLAYORDER=
